Patient4_TMGait_0pt5_01_left_37_GRF.mot
version=1
nRows=58
nColumns=19
inDegrees=no
endheader
time	F1x	F1y	F1z	M1x	M1y	M1z	F2x	F2y	F2z	M2x	M2y	M2z	EC1x	EC1y	EC1z	EC2x	EC2y	EC2z
49.28	5.8571	12.9232	-1.7553	-1.9348	0.91102	14.1804	-22.7394	758.5489	-70.7821	291.8012	77.174	680.0856	-0.0592	0.0182	-0.0073	-0.0462	0.0165	0.9585
49.2932	3.9364	9.0257	-1.2666	-1.4054	0.66368	9.8689	-22.7666	757.8425	-66.9896	290.4228	72.3905	677.7156	-0.0592	0.0182	-0.0073	-0.0462	0.0165	0.9585
49.3064	2.2731	5.7395	-0.79463	-0.97817	0.39787	6.248	-22.4987	757.931	-63.5604	289.417	67.9278	675.6194	-0.0592	0.0182	-0.0073	-0.0462	0.0165	0.9585
49.3196	0.9752	3.2733	-0.40857	-0.6717	0.16305	3.5418	-21.9439	759.1279	-60.7651	288.9716	64.1053	674.1194	-0.0592	0.0182	-0.0073	-0.0462	0.0165	0.9585
49.3329	0.058934	1.6097	-0.12968	-0.47632	-0.018784	1.7119	-21.1513	761.5446	-58.6899	289.1502	61.0287	673.3611	-0.0592	0.0182	-0.0073	-0.0462	0.0165	0.9585
49.3461	-0.53539	0.6271	0.053547	-0.37059	-0.15293	0.62915	-20.1855	765.0741	-57.3088	289.9035	58.6694	673.3001	-0.0592	0.0182	-0.0073	-0.0462	0.0165	0.9585
49.3593	-0.87961	0.1383	0.16104	-0.3231	-0.24718	0.086701	-19.0928	769.3933	-56.5409	291.0874	56.9289	673.6889	-0.0592	0.0182	-0.0073	-0.0462	0.0165	0.9585
49.3725	-1.0648	-0.059439	0.22236	-0.29717	-0.32273	-0.12484	-17.9098	774.007	-56.2702	292.489	55.6734	674.1369	-0.0592	0.0182	-0.0073	-0.0462	0.0165	0.9585
49.3857	-1.1607	-0.15667	0.25468	-0.25667	-0.38815	-0.20916	-16.6486	778.3002	-56.365	293.8528	54.7587	674.1453	-0.0592	0.0182	-0.0073	-0.0462	0.0165	0.9585
49.3989	-1.2132	-0.33637	0.28206	-0.16179	-0.45942	-0.35566	-15.3126	781.6143	-56.6789	294.9149	54.038	673.1775	-0.0592	0.0182	-0.0073	-0.0462	0.0165	0.9585
49.4121	-1.2473	-0.7474	0.30751	0.025811	-0.53369	-0.71534	-13.8949	783.3293	-57.0778	295.4348	53.3831	670.7347	-0.0592	0.0182	-0.0073	-0.0462	0.0165	0.9585
49.4254	-1.2567	-1.5008	0.34621	0.33981	-0.61291	-1.4097	-12.3718	782.9473	-57.4308	295.2215	52.6684	666.4168	-0.0592	0.0182	-0.0073	-0.0462	0.0165	0.9585
49.4386	-1.2227	-2.6504	0.38448	0.79725	-0.67089	-2.4955	-10.7074	780.1725	-57.631	294.1599	51.7826	659.9863	-0.0592	0.0182	-0.0073	-0.0462	0.0165	0.9585
49.4518	-1.0949	-4.1858	0.42179	1.3898	-0.68488	-3.9699	-8.8442	774.9666	-57.6121	292.2309	50.6407	651.4177	-0.0592	0.0182	-0.0073	-0.0462	0.0165	0.9585
49.465	-0.81574	-5.9695	0.4347	2.0633	-0.60876	-5.7005	-6.7218	767.6465	-57.3637	289.5456	49.2006	640.9914	-0.0592	0.0182	-0.0073	-0.0462	0.0165	0.9585
49.4782	-0.31228	-7.6984	0.39257	2.7034	-0.38517	-7.4007	-4.2639	758.8952	-56.912	286.3508	47.4458	629.2784	-0.0592	0.0182	-0.0073	-0.0462	0.0165	0.9585
49.4914	0.50797	-8.8297	0.24449	3.1084	0.067018	-8.5556	-1.4008	749.7178	-56.2929	283.0092	45.3755	617.1232	-0.0592	0.0182	-0.0073	-0.0462	0.0165	0.9585
49.5046	1.7267	-8.518	-0.066518	2.9657	0.8301	-8.3519	1.9211	741.2045	-55.5386	279.9099	42.9979	605.4502	-0.0592	0.0182	-0.0073	-0.0462	0.0165	0.9585
49.5179	3.3952	-5.5895	-0.59919	1.84	1.9759	-5.6575	5.7087	734.2025	-54.6849	277.345	40.3509	595.0026	-0.0592	0.0182	-0.0073	-0.0462	0.0165	0.9585
49.5311	5.4739	1.4607	-1.3963	-0.82566	3.5279	0.99392	9.9214	728.985	-53.7832	275.3916	37.5066	586.0714	-0.0592	0.0182	-0.0073	-0.0462	0.0165	0.9585
49.5443	7.7864	14.3375	-2.4728	-5.6638	5.4258	13.2673	14.4741	725.0979	-52.8821	273.8598	34.5457	578.3648	-0.0592	0.0182	-0.0073	-0.0462	0.0165	0.9585
49.5575	9.9308	34.6748	-3.7728	-13.278	7.4516	32.7788	19.2298	721.412	-52.0079	272.3143	31.5482	571.062	-0.0592	0.0182	-0.0073	-0.0462	0.0165	0.9585
49.5707	11.1999	63.5624	-5.1403	-24.0639	9.1765	60.6346	24.015	716.3567	-51.1475	270.1662	28.5803	562.9875	-0.0592	0.0182	-0.0073	-0.0462	0.0165	0.9585
49.5839	10.6202	100.8912	-6.2744	-37.9633	9.9354	96.8052	28.5899	708.2341	-50.2529	266.789	25.7037	552.8769	-0.0592	0.0182	-0.0073	-0.0462	0.0165	0.9585
49.5971	7.412	144.8199	-6.7271	-54.2634	9	139.6154	32.6849	695.4647	-49.2415	261.6134	22.9677	539.55	-0.0592	0.0182	-0.0073	-0.0462	0.0165	0.9585
49.6104	1.9934	191.6716	-5.8941	-71.5494	5.9282	185.5565	36.0214	676.8432	-48.0091	254.2192	20.412	522.1217	-0.0592	0.0182	-0.0073	-0.0462	0.0165	0.9585
49.6236	-4.3437	236.0516	-3.1229	-87.7812	0.57597	229.3187	38.374	651.7285	-46.4651	244.4005	18.07	500.1399	-0.0592	0.0182	-0.0073	-0.0462	0.0165	0.9585
49.6368	-10.3383	273.5256	1.4146	-101.3341	-6.373	266.4414	39.6299	620.1672	-44.5659	232.2053	15.9673	473.6567	-0.0592	0.0182	-0.0073	-0.0462	0.0165	0.9585
49.65	-15.3244	303.3402	6.7041	-111.9781	-13.6271	296.1176	39.8168	582.9158	-42.3173	217.9337	14.1027	443.2539	-0.0592	0.0182	-0.0073	-0.0462	0.0165	0.9585
49.6632	-19.0939	327.3268	11.8949	-120.4488	-20.252	320.1232	39.1194	541.147	-39.7772	202.0326	12.4505	409.8054	-0.0592	0.0182	-0.0073	-0.0462	0.0165	0.9585
49.6764	-21.8466	348.2709	16.2916	-127.8261	-25.6317	341.1754	37.7713	496.1692	-36.9564	184.9946	10.9254	374.2871	-0.0592	0.0182	-0.0073	-0.0462	0.0165	0.9585
49.6896	-23.9319	368.9421	19.5698	-135.1522	-29.5815	361.9192	35.9672	449.249	-33.8241	167.2927	9.4278	337.6408	-0.0592	0.0182	-0.0073	-0.0462	0.0165	0.9585
49.7029	-25.7475	391.6795	21.7848	-143.2698	-32.3085	384.5696	33.794	401.5197	-30.3595	149.3464	7.9001	300.7197	-0.0592	0.0182	-0.0073	-0.0462	0.0165	0.9585
49.7161	-27.6259	418.205	23.4377	-152.7572	-34.4231	410.7376	31.2662	353.9362	-26.6175	131.5051	6.3585	264.2337	-0.0592	0.0182	-0.0073	-0.0462	0.0165	0.9585
49.7293	-29.7751	449.3969	25.3047	-163.8581	-36.751	441.1831	28.3595	307.299	-22.7464	114.0552	4.8943	228.7695	-0.0592	0.0182	-0.0073	-0.0462	0.0165	0.9585
49.7425	-32.3556	485.163	28.1468	-176.4685	-40.0815	475.7328	25.0657	262.2891	-18.9566	97.239	3.6392	194.8086	-0.0592	0.0182	-0.0073	-0.0462	0.0165	0.9585
49.7557	-35.3748	524.7992	32.3349	-190.2999	-44.7861	513.6013	21.4229	219.5342	-15.4515	81.2818	2.7047	162.7696	-0.0592	0.0182	-0.0073	-0.0462	0.0165	0.9585
49.7689	-38.7277	567.4352	37.7868	-205.035	-50.7634	553.8328	17.535	179.6563	-12.3901	66.4085	2.1494	133.0619	-0.0592	0.0182	-0.0073	-0.0462	0.0165	0.9585
49.7821	-42.171	611.9916	44.1256	-220.306	-57.5814	595.2765	13.6028	143.2193	-9.8432	52.8284	1.9366	106.0344	-0.0592	0.0182	-0.0073	-0.0462	0.0165	0.9585
49.7954	-45.4199	656.9915	50.8574	-235.6134	-64.6801	636.4796	9.8395	110.6937	-7.787	40.7195	1.9649	81.9781	-0.0592	0.0182	-0.0073	-0.0462	0.0165	0.9585
49.8086	-48.1857	700.4975	57.5091	-250.2919	-71.5216	675.6199	6.4486	82.4029	-6.1249	30.2077	2.1	61.0765	-0.0592	0.0182	-0.0073	-0.0462	0.0165	0.9585
49.8218	-50.2408	740.2639	63.6895	-263.5643	-77.6644	710.6384	3.5782	58.5091	-4.7427	21.3559	2.2152	43.4311	-0.0592	0.0182	-0.0073	-0.0462	0.0165	0.9585
49.835	-51.4413	774.1452	69.1029	-274.6889	-82.7797	739.633	1.3293	39.0262	-3.5529	14.1669	2.217	29.0471	-0.0592	0.0182	-0.0073	-0.0462	0.0165	0.9585
49.8482	-51.6835	800.4907	73.5044	-283.1074	-86.6008	761.1846	-0.22774	23.841	-2.5125	8.5919	2.0548	17.8365	-0.0592	0.0182	-0.0073	-0.0462	0.0165	0.9585
49.8614	-50.9237	818.3488	76.6986	-288.5167	-88.9351	774.5417	-1.0895	12.7014	-1.6189	4.5283	1.7293	9.6157	-0.0592	0.0182	-0.0073	-0.0462	0.0165	0.9585
49.8746	-49.1729	827.4898	78.5585	-290.8757	-89.6741	779.6102	-1.3778	5.1873	-0.89876	1.8106	1.3093	4.0668	-0.0592	0.0182	-0.0073	-0.0462	0.0165	0.9585
49.8879	-46.5057	828.4032	79.0977	-290.3932	-88.8616	776.9572	-1.327	0.67602	-0.38966	0.19829	0.91243	0.74749	-0.0592	0.0182	-0.0073	-0.0462	0.0165	0.9585
49.9011	-43.0532	822.2343	78.4353	-287.502	-86.6619	767.729	-1.0972	-1.5929	-0.064786	-0.59283	0.57778	-0.90397	-0.0592	0.0182	-0.0073	-0.0462	0.0165	0.9585
49.9143	-39.0278	810.6674	76.8102	-282.8119	-83.3768	753.5457	-0.81507	-2.3377	0.10673	-0.83092	0.33067	-1.4144	-0.0592	0.0182	-0.0073	-0.0462	0.0165	0.9585
49.9275	-34.6963	795.7019	74.5248	-277.0351	-79.3809	736.2769	-0.54642	-2.1605	0.17773	-0.73864	0.15563	-1.2373	-0.0592	0.0182	-0.0073	-0.0462	0.0165	0.9585
49.9407	-30.3504	779.3654	71.9119	-270.887	-75.0814	717.7847	-0.31906	-1.5128	0.17883	-0.48298	0.044896	-0.71325	-0.0592	0.0182	-0.0073	-0.0462	0.0165	0.9585
49.9539	-26.2551	763.4941	69.2438	-265.0151	-70.8179	699.7289	-0.1509	-0.69392	0.15298	-0.17333	-0.026145	-0.063981	-0.0592	0.0182	-0.0073	-0.0462	0.0165	0.9585
49.9671	-22.6095	749.5698	66.7296	-259.9402	-66.8495	683.4052	-0.027407	0.10877	0.11106	0.12355	-0.062671	0.56423	-0.0592	0.0182	-0.0073	-0.0462	0.0165	0.9585
49.9804	-19.5506	738.5856	64.4779	-256.011	-63.326	669.648	0.04994	0.81066	0.076888	0.37757	-0.081632	1.1143	-0.0592	0.0182	-0.0073	-0.0462	0.0165	0.9585
49.9936	-17.1057	730.9778	62.5377	-253.3821	-60.3107	658.7708	0.093314	1.3715	0.047443	0.5774	-0.080346	1.5471	-0.0592	0.0182	-0.0073	-0.0462	0.0165	0.9585
50.0068	-15.1941	726.7242	60.8979	-252.0495	-57.774	650.6601	0.10077	1.7986	0.035377	0.72624	-0.070864	1.8752	-0.0592	0.0182	-0.0073	-0.0462	0.0165	0.9585
50.02	-13.6211	725.4793	59.5098	-251.9003	-55.6091	644.893	0.083536	2.1111	0.03108	0.83262	-0.050014	2.1155	-0.0592	0.0182	-0.0073	-0.0462	0.0165	0.9585
50.0332	-12.1014	726.7645	58.274	-252.7754	-53.6249	640.9151	0.052378	2.3238	0.035741	0.90504	-0.026539	2.2787	-0.0592	0.0182	-0.0073	-0.0462	0.0165	0.9585
